<svg
        version="1.0"
        width="40"
        height="40"
        viewBox="0 0 512.000000 512.000000"
        xmlns="http://www.w3.org/2000/svg">
    <g
            transform="translate(0.000000,512.000000) scale(0.100000,-0.100000)"
            fill="#000000"
            stroke="none">
        <path
                d="M4131 4573 c-23 -20 -91 -173 -91 -207 0 -29 18 -46 51 -46 33 0 37 6 82 112 43 101 45 121 15 142 -28 20 -31 20 -57 -1z"
                id="path1"/>
        <path
                d="M4372 4399 c-119 -112 -136 -137 -107 -169 32 -35 55 -24 168 81 126 119 135 131 112 165 -29 45 -56 32 -173 -77z"
                id="path2"/>
        <path
                d="M1398 4381 c-8 -11 -34 -83 -58 -159 l-43 -138 -85 -12 c-159 -21 -292 -113 -358 -247 -25 -52 -29 -71 -29 -145 0 -73 4 -92 28 -137 38 -73 82 -120 145 -155 58 -33 60 -40 33 -110 -10 -26 -14 -28 -69 -28 -109 0 -234 -59 -314 -149 -90 -102 -121 -240 -78 -353 26 -70 96 -150 166 -189 l52 -30 -25 -74 -25 -75 -48 0 c-152 0 -313 -108 -383 -257 -73 -157 -12 -342 142 -430 25 -15 47 -28 49 -29 2 -1 -25 -88 -59 -193 -52 -160 -61 -194 -51 -213 6 -13 25 -57 42 -99 32 -79 77 -133 137 -163 18 -9 92 -25 165 -37 209 -31 345 -55 772 -135 523 -97 684 -124 1086 -179 184 -25 421 -60 525 -76 221 -36 345 -42 390 -17 102 55 133 147 260 761 42 202 84 398 93 435 l17 67 433 306 c238 168 446 319 462 334 68 65 93 203 56 312 -46 138 -217 239 -359 212 -62 -11 -64 -12 -269 -155 -97 -68 -179 -124 -182 -124 -3 0 4 26 15 58 57 162 175 618 229 881 47 230 38 310 -46 411 -61 75 -86 87 -219 109 -316 54 -629 84 -1380 131 -384 24 -726 54 -930 81 -263 34 -270 35 -287 10z m277 -115 c230 -30 570 -59 1005 -86 590 -37 916 -68 1230 -116 131 -20 170 -30 188 -46 40 -38 31 -87 -90 -503 -59 -201 -133 -504 -193 -795 -20 -96 -38 -180 -40 -186 -2 -6 -223 -166 -492 -355 -268 -188 -508 -358 -533 -377 -41 -31 -52 -48 -118 -200 -40 -92 -89 -213 -108 -270 -33 -97 -34 -105 -19 -128 8 -13 22 -24 30 -24 34 0 453 72 520 89 64 16 94 34 276 163 112 79 225 159 250 176 l47 31 -8 -37 c-5 -20 -43 -201 -85 -402 -43 -201 -80 -368 -84 -372 -4 -4 -36 1 -71 12 -316 98 -592 146 -1380 245 -289 35 -627 81 -753 100 -235 37 -725 130 -735 140 -6 5 286 913 299 928 11 14 75 -19 118 -62 30 -30 41 -49 41 -71 0 -67 106 -80 170 -20 55 52 32 106 -45 104 -36 -1 -45 3 -61 28 -22 34 -92 88 -146 114 -21 10 -38 22 -38 27 0 11 240 750 245 755 2 2 20 -6 42 -16 57 -30 105 -85 112 -129 5 -32 11 -40 40 -49 61 -20 143 13 162 64 13 34 -28 72 -76 72 -31 0 -44 8 -86 54 -26 29 -73 66 -104 82 -45 24 -54 33 -49 49 52 178 229 695 238 695 22 0 103 -57 124 -88 13 -18 22 -45 22 -67 0 -32 4 -38 37 -51 43 -18 92 -9 137 27 53 42 22 109 -50 109 -25 0 -37 8 -60 41 -27 39 -126 119 -148 119 -6 0 -17 4 -25 9 -11 7 -6 30 25 125 21 64 41 116 44 116 3 0 91 -11 195 -24z m-498 -543 c-44 -137 -83 -252 -87 -256 -11 -12 -59 15 -97 55 -89 92 -86 226 7 331 53 61 160 116 226 117 l31 0 -80 -247z m-197 -600 c-5 -16 -43 -133 -85 -260 l-76 -233 -30 16 c-86 44 -150 160 -134 242 15 79 77 165 152 209 50 29 116 51 155 52 25 1 26 -1 18 -26z m3336 -440 c19 -20 34 -42 34 -49 0 -26 -465 -367 -995 -729 -159 -109 -305 -209 -323 -223 l-33 -25 -15 22 c-9 12 -38 34 -65 50 l-49 28 682 481 c435 307 692 482 707 482 14 0 36 -14 57 -37z m148 -198 c29 -41 37 -61 32 -79 -4 -18 -107 -95 -399 -301 -215 -152 -515 -364 -666 -471 l-275 -195 -11 46 c-7 25 -24 58 -39 73 l-26 28 328 224 c416 285 659 458 853 609 85 66 157 121 160 121 3 0 23 -25 43 -55z m-3764 -211 c0 -3 -36 -118 -81 -255 -57 -176 -85 -249 -96 -249 -26 0 -120 104 -132 146 -33 118 25 240 147 312 57 33 162 63 162 46z m2168 -638 c18 -9 41 -34 52 -56 13 -25 32 -45 53 -54 51 -21 71 -50 71 -103 l1 -47 -70 -17 c-38 -9 -89 -19 -112 -22 l-41 -7 -58 83 c-32 45 -57 87 -56 94 1 6 18 46 37 87 33 73 35 75 63 67 15 -5 42 -16 60 -25z m-2158 -465 c380 -74 676 -118 1315 -196 649 -80 840 -111 1115 -181 219 -55 255 -68 252 -89 -9 -48 -22 -65 -44 -60 -13 2 -144 21 -293 40 -582 78 -1041 150 -1565 249 -415 78 -533 98 -712 125 -75 12 -147 25 -160 30 -29 11 -70 57 -86 94 -11 25 -10 28 5 23 10 -3 88 -19 173 -35z"
                id="path3"/>
        <path
                d="M1896 3404 c-19 -19 -20 -44 -3 -67 9 -12 168 -50 572 -136 308 -67 620 -134 693 -150 73 -16 142 -26 153 -24 43 12 44 81 3 97 -28 11 -1361 296 -1383 296 -11 0 -27 -7 -35 -16z"
                id="path4"/>
        <path
                d="M1757 2602 c-9 -10 -17 -28 -17 -39 0 -44 22 -49 270 -62 261 -13 454 -30 728 -63 132 -16 188 -19 200 -11 22 13 27 66 9 82 -24 20 -462 70 -792 90 -376 24 -380 24 -398 3z"
                id="path5"/>
        <path
                d="M1542 2028 c-16 -16 -15 -63 2 -77 8 -7 74 -18 147 -26 217 -23 464 -73 614 -125 79 -27 111 -26 131 5 15 23 15 27 1 48 -28 44 -400 138 -677 172 -150 18 -202 19 -218 3z"
                id="path6"/>
        <path
                d="M4540 4098 c-47 -5 -91 -14 -98 -20 -18 -15 -11 -68 10 -82 12 -7 57 -6 155 2 113 10 142 16 158 32 15 16 17 25 9 47 -9 27 -12 28 -79 29 -39 1 -108 -3 -155 -8z"
                id="path7"/>
    </g>
    <path
            style="fill:#ffe2c9;stroke-width:0.738817;fill-opacity:1"
            d="m 454.00289,571.13512 c -2.03175,-0.52403 -7.84438,-2.17276 -12.91696,-3.66386 -36.11421,-10.61582 -73.2801,-16.9797 -172.89545,-29.60472 -55.52329,-7.03689 -89.69322,-11.6498 -107.12843,-14.46222 -30.61472,-4.93837 -90.582651,-16.44243 -91.810577,-17.61266 -1.415585,-1.34908 37.744527,-122.42723 39.858857,-123.23857 2.10829,-0.80903 8.71685,3.10141 14.01297,8.29179 4.66303,4.56993 5.35029,5.59713 5.81406,8.68976 0.95242,6.35115 5.1738,9.2593 12.22781,8.42386 8.89262,-1.0532 16.93763,-9.08876 14.78031,-14.76294 -1.12877,-2.96889 -3.97402,-4.36906 -9.71268,-4.77966 l -5.17778,-0.37047 -3.44946,-4.03764 c -4.17988,-4.89261 -9.77555,-9.26963 -17.17843,-13.43726 -3.04762,-1.71573 -5.82882,-3.399 -6.18044,-3.74061 -0.3568,-0.34663 2.203,-9.54547 5.79268,-20.81642 10.66707,-33.49273 25.61937,-78.51597 26.32351,-79.26335 0.41193,-0.43723 1.97815,-0.0616 4.15736,0.99719 7.73979,3.76028 13.01653,9.58743 15.42372,17.03256 1.87893,5.81129 4.08828,7.48615 10.05961,7.62596 5.69562,0.13335 10.457,-1.45963 14.19349,-4.74862 3.85302,-3.39155 4.72757,-6.15879 3.00138,-9.49687 -1.37878,-2.66627 -6.07615,-5.12646 -9.83575,-5.15136 -3.49834,-0.0232 -4.87313,-0.92622 -12.32661,-8.09689 -3.78627,-3.6426 -9.2676,-7.96529 -12.73008,-10.03919 -3.34439,-2.00318 -6.23726,-4.05008 -6.42858,-4.54867 -0.63504,-1.6549 21.06414,-67.27392 29.07745,-87.93113 2.59499,-6.68951 2.4414,-6.62446 7.81281,-3.30899 8.88559,5.48458 12.73586,10.52101 13.46828,17.61746 0.47359,4.58871 2.10721,6.3563 7.12269,7.70682 8.2529,2.22228 20.41336,-4.29029 20.41336,-10.93243 0,-4.51982 -4.40848,-8.32047 -9.71628,-8.37663 -3.40674,-0.036 -4.92928,-1.08042 -9.55574,-6.55472 -4.99772,-5.91358 -14.0671,-13.01017 -18.84402,-14.74504 -3.46156,-1.25715 -3.62034,-1.43568 -3.47862,-3.91131 0.26805,-4.6824 8.50706,-28.69637 9.84552,-28.69637 0.35827,0 10.05878,1.1594 21.55669,2.57645 37.75934,4.65362 68.85526,7.3444 136.53011,11.81419 80.46426,5.31451 116.67847,8.61442 154.7821,14.10407 29.18968,4.20541 34.76328,5.71282 36.98121,10.00182 2.48395,4.80343 1.03363,11.88629 -11.48152,56.07201 -12.14449,42.87706 -17.4807,64.51282 -27.67291,112.20029 -3.07139,14.37048 -5.58435,26.25348 -5.58435,26.40667 0,0.69687 -30.11722,22.36039 -77.94517,56.06647 -67.01177,47.22563 -62.43329,43.71516 -66.494,50.98314 -7.29433,13.05561 -26.23297,61.34182 -26.22473,66.86291 0.004,2.66885 2.60422,6.53379 4.75975,7.07479 3.37784,0.84779 66.6733,-10.11572 74.71136,-12.94087 5.75172,-2.02156 10.60711,-5.10656 35.41213,-22.5 34.05666,-23.88074 36.04734,-25.20297 35.58072,-23.63307 -0.22728,0.76461 -2.26809,10.2006 -4.53515,20.96885 -11.07173,52.58943 -17.76339,83.05639 -18.50616,84.25824 -0.53875,0.8717 -1.23624,0.82756 -5.89006,-0.37276 z M 324.52525,442.71264 c 5.70124,-6.51584 -0.35583,-10.73468 -25.18705,-17.54316 -27.51422,-7.54412 -69.92779,-14.75678 -86.77628,-14.75678 -4.34647,0 -5.26538,0.24381 -6.83504,1.81346 -1.39346,1.39345 -1.81346,2.59125 -1.81346,5.17172 0,6.12145 0.61587,6.34055 27.17893,9.66879 26.04357,3.26315 50.69334,8.18831 68.86725,13.76003 18.52798,5.68028 21.07461,5.87579 24.56565,1.88594 z m 68.18943,-84.35294 c 2.53761,-2.53761 2.62804,-8.70736 0.15112,-10.31095 -5.25324,-3.40104 -57.93935,-9.26061 -116.76051,-12.98571 -12.91669,-0.818 -27.26636,-1.48728 -31.88815,-1.48728 h -8.40325 l -1.91272,2.27314 c -1.89942,2.25733 -2.59401,6.64665 -1.34729,8.5138 1.8426,2.75955 8.19331,3.62643 40.0695,5.4695 32.54658,1.88183 46.68702,3.07018 79.05339,6.64353 40.26505,4.44539 38.55499,4.36689 41.03791,1.88397 z m 51.37101,-80.87718 c 3.12452,-3.12452 2.73379,-8.76346 -0.75834,-10.94433 -2.18846,-1.36671 -110.86601,-25.05232 -175.22164,-38.18848 -11.92997,-2.43513 -12.81472,-2.41527 -15.57971,0.34973 -1.97669,1.97669 -2.20276,2.62012 -1.84852,5.26118 0.50328,3.75226 0.90458,4.14559 5.9163,5.79897 11.76296,3.88063 175.80899,39.37766 183.98253,39.81098 0.74237,0.0394 2.32159,-0.90026 3.50938,-2.08805 z"
            transform="scale(0.75)"/>
    <path
            style="fill:#eed66b;fill-opacity:1;stroke-width:0.738817"
            d="m 397.55235,458.26069 c -1.3843,-1.56571 -5.10978,-4.44241 -8.27885,-6.39267 l -5.76193,-3.54593 35.98448,-25.39296 c 88.77191,-62.64319 133.01785,-93.3958 143.24597,-99.56142 5.13038,-3.09263 5.35674,-3.15514 7.46975,-2.06245 2.45139,1.26766 9.02055,8.26661 9.02055,9.61072 0,4.18234 -52.12011,42.46793 -138.89754,102.0292 -17.67619,12.13239 -33.9671,23.43213 -36.20202,25.11056 l -4.0635,3.05169 z"
            transform="scale(0.75)"/>
    <path
            style="fill:#eed66b;fill-opacity:1;stroke-width:0.738817"
            d="m 420.87927,488.97354 c -0.2709,-0.27089 -0.49255,-0.92336 -0.49255,-1.44991 0,-2.33632 -3.3115,-9.45777 -5.95013,-12.79589 l -2.88755,-3.65303 13.83876,-9.41087 c 69.02795,-46.94157 108.94079,-75.20507 143.8705,-101.8791 10.15873,-7.7577 18.90812,-14.36811 19.44309,-14.6898 1.1022,-0.66278 1.47308,-0.24958 6.79207,7.56724 5.09443,7.48682 4.98819,8.61678 -1.3001,13.82685 -6.74363,5.58733 -21.345,16.16516 -63.35353,45.89588 -19.50477,13.80411 -51.98664,36.79451 -72.18195,51.08978 -20.19531,14.29527 -36.84639,25.9914 -37.0024,25.9914 -0.15602,0 -0.50531,-0.22165 -0.77621,-0.49255 z"
            transform="scale(0.75)"/>
    <path
            style="fill:#ffffff;fill-opacity:1;stroke-width:0.100479;stroke-dasharray:none"
            d="m 375.9919,504.8722 c -1.88435,-2.65772 -8.96942,-12.84014 -9.87154,-14.18703 -2.50725,-3.7434 -4.48511,-7.12943 -4.89635,-8.38238 -0.15804,-0.48152 -0.11517,-0.72834 0.32482,-1.87016 1.12155,-2.9105 5.01263,-11.62542 6.82267,-15.28085 1.31253,-2.6507 2.05679,-3.6998 2.92834,-4.1278 0.33313,-0.16359 0.43765,-0.18183 1.02402,-0.17872 0.51712,0.003 0.80967,0.0456 1.40568,0.2059 1.67926,0.45163 5.82341,2.12265 8.25914,3.33027 1.42426,0.70615 2.28885,1.35206 3.69177,2.75801 1.47766,1.48085 2.57532,2.95845 3.61711,4.86913 1.33013,2.43949 2.74111,4.21844 4.41297,5.56383 0.9499,0.76441 1.68569,1.20782 2.91593,1.75725 1.41698,0.63282 2.4699,1.17524 3.28708,1.69337 3.50737,2.22381 5.27641,5.08728 5.78302,9.36072 0.06,0.50651 0.12133,1.96838 0.15909,3.79513 0.0338,1.6342 0.0762,3.42677 0.0942,3.98348 l 0.0328,1.01221 -5.20551,1.25899 c -2.86303,0.69245 -5.80792,1.39266 -6.54421,1.55604 -3.63456,0.80646 -8.29896,1.71956 -10.80761,2.11569 -0.71833,0.11342 -2.59348,0.42422 -4.167,0.69065 -1.57351,0.26643 -2.88706,0.48441 -2.919,0.48441 -0.0319,0 -0.18828,-0.18366 -0.34744,-0.40814 z"
            transform="scale(0.75)"/>
    <path
            style="fill:#ffffff;fill-opacity:1;stroke-width:0.968;stroke-dasharray:none"
            d="m 444.58297,596.21467 c -0.34225,-0.12677 -7.34136,-1.08021 -44.69841,-6.08898 -73.33969,-9.83326 -128.11474,-18.61705 -204.09812,-32.72942 -50.80668,-9.4363 -61.2737,-11.2913 -83.00323,-14.7101 -16.810825,-2.64492 -26.66956,-4.38282 -29.481623,-5.19702 -3.724718,-1.07845 -8.931455,-6.33635 -11.656922,-11.77146 -1.730875,-3.4517 -1.825689,-4.10098 -0.552196,-3.78135 2.97997,0.74792 11.222283,2.40755 25.692524,5.1733 50.800207,9.70962 79.607987,14.02959 164.017317,24.59573 79.96602,10.00995 100.2848,12.91279 125.41414,17.91728 20.84057,4.15038 53.06256,12.24389 61.127,15.35387 3.74329,1.44357 4.95277,2.52662 4.62928,4.14542 -0.49161,2.46017 -1.41631,4.92548 -2.28328,6.0873 -0.8172,1.09514 -1.06456,1.19801 -2.81648,1.17141 -1.05632,-0.016 -2.08682,-0.0907 -2.29,-0.16598 z"
            transform="scale(0.75)"/>
</svg>
